<svg width="537" height="609" viewBox="0 0 537 609" fill="none" xmlns="http://www.w3.org/2000/svg">
<path d="M1.78027 328.756C4.48027 323.806 7.88973 324.316 15.2197 330.756C18.5098 333.646 26.4797 340.286 32.9297 345.506C39.3797 350.726 47.8901 357.726 51.8301 361.046C55.7701 364.366 61.4801 368.626 64.5 370.506C67.5199 372.386 71.8 375.405 74 377.205C76.2 379.005 81.7 383.205 86.21 386.535C90.7298 389.875 96.7297 394.785 99.5498 397.455C107.1 404.625 106.62 405.706 92.7002 412.606C86.4817 415.685 80.8727 418.734 80.2305 419.375C78.2005 421.405 82.0704 426.725 92.8604 436.705C139.68 480.025 196.149 487.996 214.22 453.836C220.77 441.446 221.99 433.905 224.1 392.235C224.82 378.026 224.91 377.936 235.71 379.596C239.72 380.206 243.56 381.175 244.25 381.735C244.94 382.295 245.51 384.835 245.51 387.375C245.52 391.945 247.59 413.715 249.45 428.745C250.83 439.985 255.389 461.385 257.1 464.695C258.78 467.945 265.96 473.506 268.48 473.506C269.401 473.506 272.32 472.075 274.97 470.316C282.69 465.206 286.01 455.246 290.92 422.506C291.87 416.176 293.51 405.556 294.57 398.896C295.63 392.226 296.5 385.847 296.5 384.716C296.5 381.076 299.17 379.506 305.37 379.506C308.52 379.506 311.639 380.045 312.3 380.705C312.97 381.375 313.5 384.585 313.5 387.955C313.5 395.575 315.25 417.506 317.06 432.426C319.43 452.076 326.75 463.675 341.06 470.485C352.95 476.145 369.6 476.696 386.23 471.976C402.14 467.456 418.76 458.555 432 447.445C442.28 438.836 458.499 422.217 458.5 420.306C458.5 418.666 456.77 417.745 444.68 412.945C434.5 408.906 431.5 407.016 431.5 404.636C431.5 401.496 441.97 392.696 461.38 379.506C463.4 378.126 467.61 374.976 470.74 372.506C473.86 370.036 478.52 366.426 481.09 364.506C483.66 362.586 489.2 358.066 493.38 354.476C497.57 350.886 503.47 345.935 506.5 343.485C509.53 341.035 515.52 335.966 519.82 332.216C526.46 326.426 528.13 325.435 530.82 325.695C536.29 326.226 537 329.986 536.95 358.506C536.92 376.676 536.46 385.846 535.17 394.006C532.38 411.716 527.59 429.036 521.49 443.506C514.4 460.296 513.51 460.746 505.55 451.556C502.56 448.116 499.481 445.507 498.4 445.506C497.361 445.506 496.501 445.895 496.5 446.375C496.5 447.385 484.96 465.245 480.8 470.665C467.66 487.795 455.92 500.235 444.95 508.665C443.33 509.915 441.78 511.206 441.5 511.546C439.739 513.677 426.46 522.996 418.19 527.896C397.54 540.146 374.93 550.426 353 557.526C329.03 565.286 307.54 574.906 297.1 582.566C294.839 584.216 287.76 590.726 281.36 597.035C274.95 603.345 269.1 608.506 268.34 608.506C267.589 608.505 261.35 602.865 254.48 595.976C246.59 588.056 239.61 582.045 235.5 579.625C221.55 571.405 213.54 567.596 202 563.676C163.4 550.576 139.24 540.505 125.73 531.875C122.83 530.025 120.19 528.506 119.85 528.506C119.506 528.503 114.678 525.264 109.12 521.316C81.5602 501.736 61.0502 480.276 44.9502 454.186C38.4302 443.616 38.4098 443.606 33.8398 448.606C24.24 459.105 22.7996 459.106 17.5098 448.586C13.2298 440.086 5.18002 414.496 3.62988 404.506C3.0799 400.926 2.02957 394.406 1.30957 390.006C0.479577 384.916 7.98002e-06 372.916 0 357.006C0 334.946 0.210368 331.626 1.78027 328.756Z" fill="#FAF5EA"/>
<path d="M267.22 246.056C268.43 245.596 274.78 253.226 277.57 258.506C279.03 261.257 279.97 270.317 281.49 296.006C282.04 305.356 282.91 315.795 283.42 319.195C284.47 326.185 288.69 334.275 291.89 335.415C293.05 335.835 300.3 336.735 308 337.415C315.7 338.085 325.83 339.475 330.5 340.495C335.17 341.515 341.47 342.856 344.5 343.466C350.99 344.766 359.85 349.336 360.28 351.596C360.45 352.466 358.78 354.995 356.57 357.205C352.98 360.785 351.76 361.345 345.271 362.325C341.271 362.935 330.8 363.696 322 364.026C313.2 364.346 301.64 364.776 296.3 364.966C290.97 365.166 286.13 365.616 285.55 365.976C284.89 366.387 284.5 372.297 284.5 381.926C284.5 390.346 284.04 399.655 283.47 402.615C282.91 405.585 282.01 411.836 281.47 416.506C280.74 422.917 276.95 451.306 276.56 453.306C276.527 453.467 274.589 454.476 272.25 455.535C264.07 459.245 263.43 458.535 261.46 443.445C260.78 438.256 259.79 431.536 259.26 428.506C258.73 425.476 258.09 411.196 257.84 396.756C257.41 372.406 257.24 370.436 255.51 369.506C251.39 367.306 232.98 364.345 215 362.995C190.7 361.175 190.15 361.066 187.01 357.336C183.25 352.866 183.98 350.316 189.5 348.646C191.98 347.896 196.25 346.406 199 345.346C201.75 344.276 208.05 342.975 213 342.445C217.95 341.915 225.6 341.056 230 340.526C234.4 339.996 240.79 339.285 244.2 338.945C253.25 338.035 254.68 336.345 256.85 323.985C257.81 318.496 259.04 312.426 259.58 310.506C260.13 308.586 260.81 295.976 261.1 282.506C261.57 260.606 261.85 257.396 263.79 252.276C264.98 249.126 266.52 246.327 267.22 246.056Z" fill="#FAF5EA"/>
<path fill-rule="evenodd" clip-rule="evenodd" d="M255.5 0.945431C267.59 -1.16456 283.92 0.355512 293.91 4.52551C312.59 12.3155 327.82 31.3157 332.14 52.2257C336.98 75.6255 326.09 103.295 307.07 115.915C303.501 118.285 301.281 120.535 300.86 122.205C299.69 126.865 301.41 154.846 302.96 156.396C303.83 157.256 308.27 158.135 314.68 158.695C325.12 159.615 355.73 162.936 369.5 164.636C373.62 165.146 380.42 165.935 384.61 166.375C397.73 167.765 403.5 174.296 403.5 187.735C403.5 193.905 403.11 195.626 400.97 198.766C396.59 205.216 395.08 205.656 366 208.926C358.85 209.726 347.83 210.856 341.5 211.426C309.5 214.316 305.3 214.846 304.81 216.136C304.53 216.869 304.77 226.578 305.34 237.726C309.11 311.436 309.55 322.856 308.63 323.776C308.06 324.345 305.71 324.466 303.06 324.066C297.68 323.256 295.9 321.155 294.98 314.506C294.63 312.036 293.74 305.726 293 300.506C292.25 295.286 290.88 285.606 289.94 279.006C288.17 266.546 283.73 247.386 281.21 241.346C279.26 236.676 271.25 231.286 267.6 232.186C263.7 233.146 260.77 235.335 258.51 238.995C256.39 242.415 253.08 256.696 252.02 267.006C251.68 270.306 250.97 275.926 250.46 279.506C249.94 283.086 248.8 292.756 247.92 301.006C245.76 321.335 245.25 323.115 241.23 324.365C236.29 325.895 230.02 326.696 229.22 325.886C227.63 324.306 229.15 285.655 233.12 226.485C233.62 219.006 233.46 216.725 232.38 215.865C231.619 215.265 227.62 214.506 223.5 214.176C219.38 213.846 207.45 212.695 197 211.615C186.55 210.535 174.62 209.355 170.5 208.985C158.95 207.955 144.78 205.725 142.7 204.615C141.67 204.065 139.14 201.735 137.07 199.445L133.31 195.285L133.65 186.455C133.99 177.916 134.12 177.485 137.5 173.945C139.42 171.915 142.53 169.616 144.4 168.816C148.531 167.046 161.651 165.136 187.5 162.556C198.23 161.486 211.27 160.136 216.5 159.546C221.73 158.966 227.409 158.495 229.14 158.495C230.869 158.505 233.209 157.716 234.35 156.756C236.25 155.156 236.49 153.526 237.11 137.856L237.79 120.716L233.39 117.966C230.98 116.446 225.81 111.986 221.92 108.056C210.04 96.0359 204.63 81.8058 204.59 62.506C204.57 52.046 206.14 45.3157 210.98 35.1857C219.58 17.2157 236.38 4.28543 255.5 0.945431ZM268.95 36.506C257.8 36.506 248.88 41.9657 243.82 51.8956C240.32 58.7555 239.85 65.5954 242.39 72.8253C245.16 80.6953 249.79 86.2651 255.94 89.1251C263.34 92.575 274.35 92.4851 281.1 88.9152C287.939 85.3052 290.18 82.9656 293.56 75.8859C295.9 70.966 296.5 68.3657 296.5 63.046C296.5 55.6361 295.99 54.2856 290.29 46.8058C284.78 39.5658 278.45 36.506 268.95 36.506Z" fill="#FAF5EA"/>
</svg>
